Coordinates
version=1
nRows=13
nColumns=40
inDegrees=yes

Units are S.I. units (second, meters, Newtons, ...)
Angles are in degrees.

endheader
time	pelvis_tilt	pelvis_list	pelvis_rotation	pelvis_tx	pelvis_ty	pelvis_tz	hip_flexion_r	hip_adduction_r	hip_rotation_r	knee_angle_r	knee_angle_r_beta	ankle_angle_r	subtalar_angle_r	mtp_angle_r	hip_flexion_l	hip_adduction_l	hip_rotation_l	knee_angle_l	knee_angle_l_beta	ankle_angle_l	subtalar_angle_l	mtp_angle_l	lumbar_extension	lumbar_bending	lumbar_rotation	arm_flex_r	arm_add_r	arm_rot_r	elbow_flex_r	pro_sup_r	wrist_flex_r	wrist_dev_r	arm_flex_l	arm_add_l	arm_rot_l	elbow_flex_l	pro_sup_l	wrist_flex_l	wrist_dev_l
      0.00000000	     -5.97359237	     -2.90893102	      9.27372474	     -1.02870870	      0.87022009	     -1.04106076	     30.92759570	     -2.07934882	    -19.86271082	    -19.96533971	     -0.34846091	      2.62205605	     -8.30599330	      1.82701550	     -2.20337133	      8.77166142	     19.30940443	    -26.61001156	     -0.46443232	      8.92522470	      2.12934396	     -3.05016317	     -4.06015113	      0.52489437	    -11.30089081	     -6.85710840	     -7.33869387	    -12.37955163	     18.75911255	     89.95437384	      0.00000000	      0.00000000	      7.86825459	     14.30317029	     23.33124900	     52.02575410	     89.95437384	      0.00000000	      0.00000000
      0.01000000	     -6.12402367	     -2.77661704	      9.13803309	     -1.01899434	      0.86947089	     -1.04011799	     30.79372350	     -2.07147273	    -19.55580690	    -20.55253027	     -0.35870932	      2.34779478	     -8.07335129	      1.82085165	     -2.43781660	      8.76293302	     18.82404661	    -27.07364921	     -0.47252432	      8.57810834	      2.13277650	     -2.97822946	     -3.67748392	      0.46922665	    -11.27251033	     -7.29353557	     -7.25612570	    -12.30837814	     18.83837007	     89.95437384	      0.00000000	      0.00000000	      7.65811194	     14.24761702	     23.26268157	     52.09146888	     89.95437384	      0.00000000	      0.00000000
      0.02000000	     -5.75978706	     -3.27888930	      8.89017027	     -1.00933125	      0.86979342	     -1.03872333	     30.37380539	     -1.29309011	    -19.56006436	    -21.34733136	     -0.37258122	      1.03691694	     -9.71216544	      3.36023700	     -3.08431569	      9.45973283	     18.15664279	    -27.57483533	     -0.48127167	      7.64294112	      3.91225296	     -3.28622377	     -3.82632724	      1.21368684	    -11.16336243	     -6.97636697	     -7.26434639	    -12.38505724	     17.90456392	     89.95437384	      0.00000000	      0.00000000	      7.57439536	     14.12035994	     23.25627463	     51.91336540	     89.95437384	      0.00000000	      0.00000000
      0.03000000	     -5.75618311	     -3.40031440	      8.63739071	     -0.99957533	      0.86965214	     -1.03743576	     30.33396406	     -1.01692077	    -19.14258996	    -22.22596262	     -0.38791623	      0.53997412	     -9.27060161	      3.37434931	     -3.28815817	      9.74507240	     17.60767732	    -28.27709557	     -0.49352842	      6.85783737	      4.21079864	     -3.14157756	     -3.62730197	      1.46870553	    -11.02425272	     -7.11929829	     -7.24768323	    -12.28224304	     17.71567452	     89.95437384	      0.00000000	      0.00000000	      7.36766912	     14.03193879	     23.19146656	     51.81374904	     89.95437384	      0.00000000	      0.00000000
      0.04000000	     -5.73282007	     -3.70471563	      8.28677179	     -0.98980716	      0.86989581	     -1.03599177	     30.15565384	     -0.50022940	    -18.86053908	    -22.83465728	     -0.39853995	     -0.20573994	     -8.75891302	      3.46645368	     -3.34086508	     10.28006228	     17.27184284	    -29.25725056	     -0.51063535	      5.73761760	      5.11584157	     -2.91205235	     -3.42014692	      1.93208431	    -10.79756040	     -7.04492921	     -7.25537409	    -12.20433106	     17.30778585	     89.95437384	      0.00000000	      0.00000000	      7.15176445	     13.82251012	     23.20899126	     51.55846652	     89.95437384	      0.00000000	      0.00000000
      0.05000000	     -5.63387404	     -4.04832075	      8.08146775	     -0.97943135	      0.87030320	     -1.03461464	     29.69497940	      0.05605490	    -18.71728066	    -23.24959931	     -0.40578206	     -0.56561238	     -8.59544388	      3.62019838	     -3.34359278	     10.89220366	     16.84045379	    -30.41038596	     -0.53076136	      4.56414180	      6.45127560	     -2.65542650	     -3.20246080	      2.41561405	    -10.81859372	     -7.00056198	     -7.24113041	    -12.23231905	     16.97653997	     89.95437384	      0.00000000	      0.00000000	      6.71556770	     13.64841919	     23.34441916	     51.36179130	     89.95437384	      0.00000000	      0.00000000
      0.06000000	     -5.56963969	     -4.15239600	      7.71480145	     -0.96944316	      0.87075017	     -1.03305088	     29.35661429	      0.37144715	    -18.50387703	    -23.86718008	     -0.41656088	     -0.52933568	     -8.57965172	      3.61302879	     -3.28212589	     11.12753892	     16.05821762	    -31.63440105	     -0.55212446	      3.31116665	      7.13942450	     -2.41460597	     -3.10668009	      2.61635665	    -10.52813656	     -7.09045994	     -7.22782583	    -12.14494427	     16.94662320	     89.95437384	      0.00000000	      0.00000000	      6.36570857	     13.48283532	     23.28654991	     51.26273787	     89.95437384	      0.00000000	      0.00000000
      0.07000000	     -5.55050908	     -4.42926487	      7.52992220	     -0.95902128	      0.87136218	     -1.03158189	     28.85969171	      0.82998814	    -18.54241184	    -24.23078316	     -0.42290695	     -0.17876937	     -9.04532929	      3.70989390	     -2.92524408	     11.65128156	     15.49141308	    -33.09833729	     -0.57767496	      1.52944851	      8.92956006	     -1.99753278	     -2.80239027	      2.99686509	    -10.62944469	     -7.00967912	     -7.18780185	    -12.16561858	     16.79077838	     89.95437384	      0.00000000	      0.00000000	      5.79743654	     13.36832461	     23.29242731	     50.92499454	     89.95437384	      0.00000000	      0.00000000
      0.08000000	     -5.68502643	     -4.59648034	      7.20509015	     -0.94919746	      0.87182759	     -1.02999207	     28.46710932	      1.26525386	    -18.27806202	    -24.38416367	     -0.42558394	      0.07747991	     -9.14419329	      3.79839348	     -2.20834457	     11.90181205	     14.53674240	    -34.82562216	     -0.60782177	     -0.25152198	     10.56978422	     -1.56166974	     -2.46117630	      3.22616050	    -10.46183874	     -6.99417547	     -7.16613182	    -12.12623088	     16.77663092	     89.95437384	      0.00000000	      0.00000000	      5.36297621	     13.21520586	     23.23256141	     50.66696121	     89.95437384	      0.00000000	      0.00000000
      0.09000000	     -5.64155069	     -4.52357117	      6.72464071	     -0.93956800	      0.87266078	     -1.02810685	     27.96126349	      1.51791713	    -17.91156859	    -24.75299191	     -0.43202121	      0.33845176	     -8.80516350	      3.71536997	     -1.61606228	     11.93764367	     13.72104277	    -36.68568019	     -0.64028591	     -1.96081819	     11.40024203	     -1.20563655	     -2.42295343	      3.18816024	    -10.05357870	     -6.95115938	     -7.08485301	    -12.01402286	     16.92419497	     89.95437384	      0.00000000	      0.00000000	      5.00539649	     13.05653729	     23.13424967	     50.44842270	     89.95437384	      0.00000000	      0.00000000
      0.10000000	     -5.86063017	     -4.81841062	      6.53640201	     -0.92984612	      0.87317272	     -1.02637130	     27.55888597	      2.13762431	    -17.62271878	    -24.72971602	     -0.43161497	      1.00682217	     -8.55481855	      3.68825871	     -0.35221105	     12.41080129	     12.81934799	    -38.79471439	     -0.67709550	     -4.80636115	     13.58420261	     -0.46046226	     -1.92664723	      3.52273965	    -10.11692694	     -6.83252665	     -7.03572145	    -11.92531806	     16.95581301	     89.95437384	      0.00000000	      0.00000000	      4.47450545	     12.98467421	     22.99385232	     49.92175567	     89.95437384	      0.00000000	      0.00000000
      0.11000000	     -6.35187561	     -4.79893714	      6.31417262	     -0.92089273	      0.87321939	     -1.02490668	     27.58891318	      2.31417266	    -17.37648845	    -24.91851270	     -0.43491009	      1.27476289	     -8.73531389	      4.06128499	      1.41995769	     12.22089012	     11.24108500	    -41.21812510	     -0.71939199	     -6.86223861	     15.50704397	      0.92271831	     -1.28301596	      3.47954383	     -9.98913219	     -6.88082197	     -6.98359969	    -11.77184982	     17.37036013	     89.95437384	      0.00000000	      0.00000000	      4.06534062	     12.83390938	     22.81724643	     49.51393168	     89.95437384	      0.00000000	      0.00000000
      0.12000000	     -6.56539432	     -4.69901835	      5.95506261	     -0.91205929	      0.87375841	     -1.02338562	     27.26374584	      2.47614229	    -17.16238161	    -25.15466770	     -0.43903177	      2.35045253	     -8.12572549	      7.17074895	      2.87430754	     11.94092786	      9.91774481	    -43.70235085	     -0.76274991	     -7.99292795	     16.02021736	     11.41463980	     -1.02693593	      3.41034828	     -9.62032064	     -6.85798026	     -6.94797434	    -11.51695051	     17.85839595	     89.95437384	      0.00000000	      0.00000000	      3.83001561	     12.67076750	     22.57447935	     48.94036240	     89.95437384	      0.00000000	      0.00000000
